<svg xmlns="http://www.w3.org/2000/svg" viewBox="0 0 1200 340" width="1200" height="340" role="img" aria-label="Timothee Berthelot, developpeur full-stack">
  <rect width="1200" height="340" fill="#0D1117"/>

  <g fill="none" stroke="#E6EDF3" stroke-width="1" opacity="0.42">
    <path d="M30 58 V30 H58"/><path d="M1142 30 H1170 V58"/>
    <path d="M1170 282 V310 H1142"/><path d="M58 310 H30 V282"/>
  </g>

  <text x="88" y="64" font-family="Segoe UI, -apple-system, Helvetica Neue, Arial, sans-serif"
        font-size="12" letter-spacing="3.2" fill="#6E7681">GITHUB · TIMSUP-BIT</text>
  <text x="1112" y="64" text-anchor="end" font-family="Segoe UI, -apple-system, Helvetica Neue, Arial, sans-serif"
        font-size="12" letter-spacing="3.2" fill="#6E7681">2026</text>

  <rect x="88" y="84" width="1024" height="1" fill="#E6EDF3" opacity="0.55"/>
  <g fill="none" stroke="#E6EDF3" stroke-width="1" opacity="0.28">
    <path d="M173 85 v9"/><path d="M258 85 v6"/><path d="M343 85 v9"/><path d="M429 85 v6"/>
    <path d="M514 85 v9"/><path d="M600 85 v13"/><path d="M685 85 v9"/><path d="M770 85 v6"/>
    <path d="M856 85 v9"/><path d="M941 85 v6"/><path d="M1026 85 v9"/>
  </g>

  <text x="84" y="212" font-family="Georgia, Iowan Old Style, Times New Roman, serif"
        font-size="86" letter-spacing="-2.2" fill="#E6EDF3">Timothée Berthelot</text>

  <path d="M92 240 C 196 232, 340 246, 448 237 C 556 228, 636 243, 742 235"
        fill="none" stroke="#E6EDF3" stroke-width="2.8" stroke-linecap="round" opacity="0.92"/>
  <path d="M101 247 C 228 242, 358 251, 470 244 C 566 238, 640 247, 700 243"
        fill="none" stroke="#E6EDF3" stroke-width="1.1" stroke-linecap="round" opacity="0.3"/>

  <rect x="88" y="284" width="1024" height="1" fill="#E6EDF3" opacity="0.55"/>
  <text x="88" y="312" font-family="Segoe UI, -apple-system, Helvetica Neue, Arial, sans-serif"
        font-size="12.5" letter-spacing="3.4" fill="#8B949E">DÉVELOPPEUR FULL-STACK</text>
  <text x="1112" y="312" text-anchor="end" font-family="Segoe UI, -apple-system, Helvetica Neue, Arial, sans-serif"
        font-size="12.5" letter-spacing="3.4" fill="#8B949E">JAVA · TYPESCRIPT · PYTHON · VUE</text>
</svg>
